<?xml version="1.0" encoding="UTF-8" standalone="no"?>
<!-- Created with Inkscape (http://www.inkscape.org/) -->

<svg
   xmlns:dc="http://purl.org/dc/elements/1.1/"
   xmlns:cc="http://creativecommons.org/ns#"
   xmlns:rdf="http://www.w3.org/1999/02/22-rdf-syntax-ns#"
   xmlns:svg="http://www.w3.org/2000/svg"
   xmlns="http://www.w3.org/2000/svg"
   xmlns:sodipodi="http://sodipodi.sourceforge.net/DTD/sodipodi-0.dtd"
   xmlns:inkscape="http://www.inkscape.org/namespaces/inkscape"
   width="300"
   height="300"
   viewBox="0 0 300.00001 300.00001"
   id="svg2"
   version="1.1"
   inkscape:version="0.91 r13725"
   sodipodi:docname="edit.svg">
  <defs
     id="defs4" />
  <sodipodi:namedview
     id="base"
     pagecolor="#ffffff"
     bordercolor="#666666"
     borderopacity="1.0"
     inkscape:pageopacity="0.0"
     inkscape:pageshadow="2"
     inkscape:zoom="0.85191132"
     inkscape:cx="139.84766"
     inkscape:cy="105.52853"
     inkscape:document-units="px"
     inkscape:current-layer="g4157"
     showgrid="false"
     units="px"
     fit-margin-top="0"
     fit-margin-left="0"
     fit-margin-right="0"
     fit-margin-bottom="0"
     inkscape:window-width="1500"
     inkscape:window-height="937"
     inkscape:window-x="-8"
     inkscape:window-y="-8"
     inkscape:window-maximized="1" />
  <metadata
     id="metadata7">
    <rdf:RDF>
      <cc:Work
         rdf:about="">
        <dc:format>image/svg+xml</dc:format>
        <dc:type
           rdf:resource="http://purl.org/dc/dcmitype/StillImage" />
        <dc:title></dc:title>
      </cc:Work>
    </rdf:RDF>
  </metadata>
  <g
     inkscape:label="Layer 1"
     inkscape:groupmode="layer"
     id="layer1"
     transform="translate(-18.60158,-236.31343)">
    <g
       id="g4157"
       style="fill:#000000"
       transform="matrix(0.64927707,0,0,1.001748,-4.3811221,-0.53740731)">
      <path
         style="fill:none;fill-rule:evenodd;stroke:#000000;stroke-width:6.19977216;stroke-linecap:butt;stroke-linejoin:miter;stroke-opacity:1;stroke-miterlimit:4;stroke-dasharray:none"
         d="m 39.917134,240.03889 453.784076,0 0,292.94571 -455.591981,0 z"
         id="path4478"
         inkscape:connector-curvature="0" />
      <g
         transform="matrix(1.8377557,0,0,1.1911305,-63.63866,-175.1461)"
         style="font-style:normal;font-variant:normal;font-weight:normal;font-stretch:normal;font-size:306.19692993px;line-height:125%;font-family:'MV Boli';-inkscape-font-specification:'MV Boli';letter-spacing:0px;word-spacing:0px;fill:#000000;fill-opacity:1;stroke:none;stroke-width:1px;stroke-linecap:butt;stroke-linejoin:miter;stroke-opacity:1"
         id="text4502">
        <path
           d="m 81.59675,563.64871 q 0,-5.23286 1.495102,-11.06376 5.083347,-20.33339 11.811307,-39.76972 6.877471,-19.58584 12.409351,-38.87265 5.53188,-19.28682 9.12012,-32.44372 3.73776,-13.30641 6.57845,-22.72556 2.84069,-9.56865 5.23286,-16.44612 2.39216,-6.87747 5.23286,-13.60543 1.79412,-4.03678 3.88726,-8.37257 2.24265,-4.3358 4.78433,-7.92404 2.54167,-3.73776 5.23286,-5.98041 2.84069,-2.39217 5.83089,-2.39217 6.12992,0 9.26964,2.09315 3.28922,1.94363 4.03677,3.58824 l 1.3456,6.12992 q 2.24265,-0.14951 5.83089,-0.74755 3.58825,-0.74755 7.1765,-1.4951 3.73775,-0.74755 6.87747,-1.4951 3.13971,-0.74756 4.78432,-1.3456 9.86768,-2.69118 18.24025,-4.63481 8.37257,-1.94364 15.84808,-3.13972 7.62502,-1.34559 14.50249,-1.94363 6.87747,-0.59804 13.90445,-0.59804 6.87747,0 11.21327,0.74755 4.3358,0.74755 6.87747,2.09314 2.54167,1.19608 3.43874,2.99021 1.04657,1.64461 1.04657,3.58824 0,1.79413 -1.04657,3.88727 -0.89707,1.94363 -3.13972,3.73775 -2.24265,1.79413 -5.8309,3.13972 -3.58824,1.34559 -8.97061,1.79412 -1.34559,0.29902 -6.27943,1.19608 -4.78433,0.74755 -10.46571,1.79413 -5.68139,0.89706 -10.76474,1.79412 -5.08335,0.89706 -7.02698,1.34559 l 0.14951,0 q -0.89706,0.14951 -4.3358,1.19608 -3.28922,0.89706 -8.07355,2.24265 -4.78433,1.19609 -10.46571,2.8407 -5.53188,1.64461 -11.06376,3.28922 -5.38237,1.49511 -10.01719,2.99021 -4.63481,1.34559 -7.47551,2.24265 -9.12012,3.58825 -14.35298,9.56866 -5.08335,5.83089 -8.07355,13.1569 -0.59804,1.34559 -1.79412,4.63481 -1.19608,3.13972 -2.69119,7.326 -1.34559,4.03678 -2.9902,8.6716 -1.64461,4.63481 -3.13972,8.8211 -1.4951,4.18628 -2.69118,7.62502 -1.04657,3.43873 -1.4951,5.08335 -0.44853,1.4951 -0.59804,2.69118 -0.14951,1.19608 -0.14951,1.79412 0,0.89706 0.44853,0.89706 2.24265,0 9.26963,-1.94363 7.17649,-2.09314 16.59564,-5.08335 9.56865,-2.9902 20.33339,-6.42893 10.91424,-3.43874 20.78192,-6.42894 10.01718,-2.99021 17.79171,-4.93384 7.77453,-2.09314 11.21327,-2.09314 5.23286,0 7.02698,1.79412 1.79412,1.64461 1.79412,3.73775 0,5.38237 -3.88726,9.41915 -3.73776,4.03677 -9.41915,7.02698 -1.79412,0.89706 -6.72796,2.69118 -4.78432,1.64461 -10.46571,3.43874 -5.53188,1.79412 -10.61523,3.43873 -5.08335,1.64461 -7.326,2.39217 -14.652,5.68138 -23.92163,9.41914 -9.12013,3.58824 -14.80152,5.98041 -5.68138,2.24265 -8.8211,3.43873 -2.9902,1.19608 -5.68139,2.09315 -2.54167,0.74755 -5.68139,1.4951 -3.13971,0.74755 -8.67159,2.09314 -1.34559,3.13972 -3.13971,9.56866 -1.79413,6.27942 -3.43874,13.15689 -1.64461,6.72796 -2.84069,12.55886 -1.04657,5.8309 -1.04657,8.07355 0,2.69119 0.74755,4.03678 0.74755,1.19608 1.79412,1.64461 1.04657,0.44853 2.09314,0.44853 1.04657,0 1.64462,0 7.17649,0 17.19367,-2.09314 10.1667,-2.09314 20.03437,-5.53188 9.41914,-3.28922 16.44612,-7.17649 7.02698,-3.88726 13.1569,-7.17649 6.27943,-3.43873 12.11033,-5.68139 5.98041,-2.39216 13.00739,-2.54167 1.4951,0 3.43874,0.29902 2.09314,0.29902 3.88726,1.19608 1.79412,0.74755 2.8407,2.09314 1.19608,1.3456 0.89706,3.43874 -0.59804,4.3358 -4.3358,8.52208 -3.73775,4.18629 -9.41914,8.07355 -5.68139,3.88727 -12.70837,7.47552 -7.02698,3.58824 -14.35298,6.87747 -7.326,3.13971 -14.35298,5.83089 -7.02698,2.54168 -12.55886,4.48531 -13.75494,4.78433 -26.76233,7.02698 -13.00739,2.24265 -23.3236,2.24265 -11.362773,0 -17.492692,-4.33579 -5.980408,-4.18629 -5.980408,-14.05396 z"
           id="path4507"
           inkscape:connector-curvature="0" />
      </g>
    </g>
  </g>
</svg>
