<?xml version="1.0" encoding="UTF-8" standalone="no"?>
<!-- Created with Inkscape (http://www.inkscape.org/) -->

<svg
   xmlns:dc="http://purl.org/dc/elements/1.1/"
   xmlns:cc="http://creativecommons.org/ns#"
   xmlns:rdf="http://www.w3.org/1999/02/22-rdf-syntax-ns#"
   xmlns:svg="http://www.w3.org/2000/svg"
   xmlns="http://www.w3.org/2000/svg"
   xmlns:sodipodi="http://sodipodi.sourceforge.net/DTD/sodipodi-0.dtd"
   xmlns:inkscape="http://www.inkscape.org/namespaces/inkscape"
   width="84.622429mm"
   height="84.573082mm"
   viewBox="0 0 299.84325 299.6684"
   id="svg2"
   version="1.1"
   inkscape:version="0.91 r13725"
   sodipodi:docname="save.svg">
  <defs
     id="defs4" />
  <sodipodi:namedview
     id="base"
     pagecolor="#ffffff"
     bordercolor="#666666"
     borderopacity="1.0"
     inkscape:pageopacity="0.0"
     inkscape:pageshadow="2"
     inkscape:zoom="0.35"
     inkscape:cx="149.92163"
     inkscape:cy="149.83419"
     inkscape:document-units="px"
     inkscape:current-layer="layer1"
     showgrid="false"
     fit-margin-top="0"
     fit-margin-left="0"
     fit-margin-right="0"
     fit-margin-bottom="0"
     inkscape:window-width="1500"
     inkscape:window-height="937"
     inkscape:window-x="-8"
     inkscape:window-y="-8"
     inkscape:window-maximized="1" />
  <metadata
     id="metadata7">
    <rdf:RDF>
      <cc:Work
         rdf:about="">
        <dc:format>image/svg+xml</dc:format>
        <dc:type
           rdf:resource="http://purl.org/dc/dcmitype/StillImage" />
        <dc:title></dc:title>
      </cc:Work>
    </rdf:RDF>
  </metadata>
  <g
     inkscape:label="Layer 1"
     inkscape:groupmode="layer"
     id="layer1"
     transform="translate(433.49306,-382.52801)">
    <path
       inkscape:connector-curvature="0"
       id="path4478"
       d="m -430.29408,385.63331 294.6316,0 0,293.45778 -295.80543,0 z"
       style="fill:none;fill-rule:evenodd;stroke:#000000;stroke-width:5;stroke-linecap:butt;stroke-linejoin:miter;stroke-miterlimit:4;stroke-dasharray:none;stroke-opacity:1" />
    <g
       style="font-style:normal;font-variant:normal;font-weight:bold;font-stretch:normal;font-size:327.09997559px;line-height:125%;font-family:'Adobe Gothic Std';-inkscape-font-specification:'Adobe Gothic Std, Bold';text-align:start;letter-spacing:0px;word-spacing:0px;writing-mode:lr-tb;text-anchor:start;fill:#000000;fill-opacity:1;stroke:none;stroke-width:1px;stroke-linecap:butt;stroke-linejoin:miter;stroke-opacity:1"
       id="text3358">
      <path
         d="m -360.27637,647.50142 c 11.7756,7.1962 36.9623,14.0653 61.82189,14.0653 58.5509,0 91.588,-32.0558 91.588,-75.8872 0,-33.0371 -17.9905,-56.2612 -58.2238,-74.25169 -30.7474,-14.0653 -43.17719,-22.2428 -43.17719,-40.2333 0,-14.0653 11.44849,-27.8035 36.96229,-27.8035 20.6073,0 35.981,6.2149 44.8127,10.7943 l 10.1401,-39.5791 c -11.7756,-5.8878 -30.0932,-11.4485 -53.9715,-11.4485 -54.29859,0 -86.68149,31.7287 -86.68149,72.9433 0,32.71 23.5512,56.26119 61.49479,72.61619 27.8035,12.1027 39.9062,22.897 39.9062,40.8875 0,18.6447 -14.0653,31.4016 -40.8875,31.4016 -20.28019,0 -41.21459,-6.2149 -54.29859,-14.0653 l -9.4859,40.5604 z"
         style=""
         id="path3363" />
    </g>
  </g>
</svg>
